# xmcd
#
# Track frame offsets:
#	150
#	14090
#	28375
#	39207
#	55270
#	67665
#	82012
#	99137
#	111890
#	130800
#	146715
#	160445
#	179705
#	194685
#	213097
#	231570
#	232220
#	232835
#	233627
#	234255
#	234947
#	235590
#	236407
#	237207
#	237972
#
# Disc length: 3178
#
# Revision: 1
# Processed by: cddbd v1.5.1PL0 Copyright (c) Steve Scherf et al.
# Submitted via: VisiTrax 2.9.5.180 - For more info visit www.synapsa.com
# Normalized: r0:DSETVAR1
#
DISCID=4d0c6819
DTITLE=Various Artist - CDX 106 April 1995
DYEAR=1995
DGENRE=
TTITLE0=Tractors - Badly bent
TTITLE1=Boy Howdy - Bigger fish to fry
TTITLE2=Stacy Dean Campbell - Eight feet high
TTITLE3=George Ducas - Hello cruel world
TTITLE4=John randall - I came straight to you
TTITLE5=Shane Sutton - I've got your number
TTITLE6=John Anderson - Mississippi moon
TTITLE7=Pirates of the Mississippi - Paradise
TTITLE8=Little Texas - Southern grace
TTITLE9=James House - This is me missing you
TTITLE10=Linda Ronstadt - Walk on
TTITLE11=Midsouth - Without you ( I haven't got a prayer)
TTITLE12=Trisha Yearwood - You can sleep while I drive
TTITLE13=Jason Young - Dancin' shoes
TTITLE14=Diamond Rio - Bubba Hyde (dancemix)
TTITLE15=Neal McCoy - Intro
TTITLE16=Neal McCoy - Intro
TTITLE17=Neal McCoy - Intro
TTITLE18=Neal McCoy - Intro
TTITLE19=Neal McCoy - Intro
TTITLE20=Neal McCoy - Intro
TTITLE21=Neal McCoy - Intro
TTITLE22=Neal McCoy - Intro
TTITLE23=Neal McCoy - Intro
TTITLE24=Neal McCoy - Intro
EXTD=
EXTT0=
EXTT1=
EXTT2=
EXTT3=
EXTT4=
EXTT5=
EXTT6=
EXTT7=
EXTT8=
EXTT9=
EXTT10=
EXTT11=
EXTT12=
EXTT13=
EXTT14=
EXTT15=
EXTT16=
EXTT17=
EXTT18=
EXTT19=
EXTT20=
EXTT21=
EXTT22=
EXTT23=
EXTT24=
PLAYORDER=
